<?xml version="1.0" standalone="no"?>
<!DOCTYPE svg PUBLIC "-//W3C//DTD SVG 20010904//EN"
 "http://www.w3.org/TR/2001/REC-SVG-20010904/DTD/svg10.dtd">
<svg version="1.0" xmlns="http://www.w3.org/2000/svg"
 width="512.000000pt" height="512.000000pt" viewBox="0 0 512.000000 512.000000"
 preserveAspectRatio="xMidYMid meet">

<g transform="translate(0.000000,512.000000) scale(0.100000,-0.100000)"
fill="#000000" stroke="none">
<path d="M1766 5000 c-251 -40 -509 -184 -660 -369 -166 -202 -247 -423 -249
-676 -3 -246 67 -460 212 -652 144 -191 342 -325 579 -391 88 -24 113 -27 272
-27 151 0 186 3 260 23 310 84 558 285 694 565 204 415 122 903 -206 1228
-134 133 -302 228 -486 275 -109 28 -313 40 -416 24z"/>
<path d="M837 2434 c-209 -38 -384 -131 -537 -284 -157 -157 -248 -331 -285
-548 -13 -73 -15 -169 -13 -530 3 -427 4 -441 24 -468 11 -15 33 -37 48 -48
27 -21 31 -21 1416 -24 l1389 -2 3 412 3 413 30 84 c16 46 50 116 75 155 58
89 170 194 254 237 l63 33 5 106 c4 86 12 125 40 208 l35 103 -56 32 c-75 44
-168 82 -266 109 l-80 23 -1035 2 c-858 1 -1048 -1 -1113 -13z"/>
<path d="M4036 2435 c-170 -43 -316 -175 -378 -340 -20 -54 -23 -82 -26 -276
l-3 -216 -69 -7 c-149 -13 -260 -87 -322 -214 l-33 -67 0 -465 0 -465 33 -67
c40 -82 119 -157 200 -190 l57 -23 665 0 665 0 57 23 c81 33 160 108 200 190
l33 67 0 465 0 465 -33 67 c-62 127 -173 201 -322 214 l-69 7 -3 216 c-3 193
-6 222 -25 274 -58 155 -181 276 -334 328 -82 28 -213 34 -293 14z m202 -321
c49 -20 90 -60 113 -109 16 -34 19 -66 19 -222 l0 -183 -210 0 -210 0 0 185
c0 163 2 190 19 223 53 102 169 148 269 106z"/>
</g>
</svg>
